<?xml version="1.0" encoding="UTF-8" standalone="no"?>
<!DOCTYPE svg PUBLIC "-//W3C//DTD SVG 1.1//EN" "http://www.w3.org/Graphics/SVG/1.1/DTD/svg11.dtd">
<svg width="100%" height="100%" viewBox="0 0 2000 2000" version="1.1" xmlns="http://www.w3.org/2000/svg" xmlns:xlink="http://www.w3.org/1999/xlink" xml:space="preserve" xmlns:serif="http://www.serif.com/" style="fill-rule:evenodd;clip-rule:evenodd;stroke-linejoin:round;stroke-miterlimit:2;">
    <path d="M2000,400C2000,179.234 1820.77,0 1600,0L400,0C179.234,0 0,179.234 0,400L0,1600C0,1820.77 179.234,2000 400,2000L1600,2000C1820.77,2000 2000,1820.77 2000,1600L2000,400Z" style="fill:url(#_Linear1);"/>
    <path d="M2000,400C2000,179.234 1820.77,0 1600,0L400,0C179.234,0 0,179.234 0,400L0,1600C0,1820.77 179.234,2000 400,2000L1600,2000C1820.77,2000 2000,1820.77 2000,1600L2000,400Z" style="fill:rgb(50,50,50);fill-opacity:0.6;"/>
    <g id="logo" transform="matrix(0.924553,0,0,0.924553,72.57,75.4469)">
        <g transform="matrix(1.1257,0,0,1.1257,-193.251,598.772)">
            <text x="596.882px" y="641.425px" style="font-family:'JetBrainsMono-ExtraBold', 'JetBrains Mono', monospace;font-weight:800;font-size:791.667px;fill:white;">md</text>
        </g>
        <g transform="matrix(1.66971,0,0,1.66971,-1016.52,404.874)">
            <text x="596.882px" y="641.425px" style="font-family:'JetBrainsMono-Medium', 'JetBrains Mono', monospace;font-weight:500;font-size:791.667px;fill:white;">[</text>
        </g>
        <g transform="matrix(1.66971,0,0,1.66971,236.395,404.874)">
            <text x="596.882px" y="641.425px" style="font-family:'JetBrainsMono-Medium', 'JetBrains Mono', monospace;font-weight:500;font-size:791.667px;fill:white;">]</text>
        </g>
    </g>
    <defs>
        <linearGradient id="_Linear1" x1="0" y1="0" x2="1" y2="0" gradientUnits="userSpaceOnUse" gradientTransform="matrix(2000,0,0,2000,-2.27374e-13,940.096)"><stop offset="0" style="stop-color:rgb(0,156,106);stop-opacity:1"/><stop offset="1" style="stop-color:rgb(0,159,180);stop-opacity:1"/></linearGradient>
    </defs>
</svg>
